<mxfile host="app.diagrams.net" modified="2021-08-19T09:41:13.751Z" agent="5.0 (Windows NT 10.0; Win64; x64) AppleWebKit/537.36 (KHTML, like Gecko) Chrome/92.0.4515.159 Safari/537.36" etag="0KUiCLWmyqZnxALuRbB9" version="14.9.8" type="github">
  <diagram id="CnqDnhZKpVTjkYfBsWDw" name="1智能合约的结构">
    <mxGraphModel dx="966" dy="632" grid="1" gridSize="10" guides="1" tooltips="1" connect="1" arrows="1" fold="1" page="1" pageScale="1" pageWidth="827" pageHeight="1169" math="0" shadow="0">
      <root>
        <mxCell id="0" />
        <mxCell id="1" parent="0" />
        <mxCell id="TfRsqFgp6yVs1uY6bBsS-11" style="edgeStyle=orthogonalEdgeStyle;rounded=0;orthogonalLoop=1;jettySize=auto;html=1;exitX=1;exitY=0.5;exitDx=0;exitDy=0;entryX=0;entryY=0.5;entryDx=0;entryDy=0;fontSize=17;endArrow=none;endFill=0;" parent="1" source="TfRsqFgp6yVs1uY6bBsS-1" target="TfRsqFgp6yVs1uY6bBsS-3" edge="1">
          <mxGeometry relative="1" as="geometry" />
        </mxCell>
        <mxCell id="TfRsqFgp6yVs1uY6bBsS-12" style="edgeStyle=orthogonalEdgeStyle;rounded=0;orthogonalLoop=1;jettySize=auto;html=1;exitX=1;exitY=0.5;exitDx=0;exitDy=0;entryX=0;entryY=0.5;entryDx=0;entryDy=0;fontSize=17;endArrow=none;endFill=0;" parent="1" source="TfRsqFgp6yVs1uY6bBsS-1" target="TfRsqFgp6yVs1uY6bBsS-4" edge="1">
          <mxGeometry relative="1" as="geometry" />
        </mxCell>
        <mxCell id="TfRsqFgp6yVs1uY6bBsS-13" style="edgeStyle=orthogonalEdgeStyle;rounded=0;orthogonalLoop=1;jettySize=auto;html=1;exitX=1;exitY=0.5;exitDx=0;exitDy=0;entryX=0;entryY=0.5;entryDx=0;entryDy=0;fontSize=17;endArrow=none;endFill=0;" parent="1" source="TfRsqFgp6yVs1uY6bBsS-1" target="TfRsqFgp6yVs1uY6bBsS-5" edge="1">
          <mxGeometry relative="1" as="geometry" />
        </mxCell>
        <mxCell id="TfRsqFgp6yVs1uY6bBsS-1" value="智能合约" style="aspect=fixed;perimeter=ellipsePerimeter;html=1;align=center;shadow=0;dashed=0;spacingTop=3;image;image=img/lib/active_directory/documents.svg;fontSize=17;fontStyle=1" parent="1" vertex="1">
          <mxGeometry x="120" y="190" width="33" height="50" as="geometry" />
        </mxCell>
        <mxCell id="TfRsqFgp6yVs1uY6bBsS-3" value="编译程序版本声明" style="rounded=1;whiteSpace=wrap;html=1;fontSize=17;fontStyle=1" parent="1" vertex="1">
          <mxGeometry x="210" y="135" width="150" height="30" as="geometry" />
        </mxCell>
        <mxCell id="TfRsqFgp6yVs1uY6bBsS-4" value="引用其他合约" style="rounded=1;whiteSpace=wrap;html=1;fontSize=17;fontStyle=1" parent="1" vertex="1">
          <mxGeometry x="210" y="200" width="150" height="30" as="geometry" />
        </mxCell>
        <mxCell id="TfRsqFgp6yVs1uY6bBsS-14" style="edgeStyle=orthogonalEdgeStyle;rounded=0;orthogonalLoop=1;jettySize=auto;html=1;exitX=1;exitY=0.5;exitDx=0;exitDy=0;entryX=0;entryY=0.5;entryDx=0;entryDy=0;fontSize=17;endArrow=none;endFill=0;" parent="1" source="TfRsqFgp6yVs1uY6bBsS-5" target="TfRsqFgp6yVs1uY6bBsS-6" edge="1">
          <mxGeometry relative="1" as="geometry" />
        </mxCell>
        <mxCell id="TfRsqFgp6yVs1uY6bBsS-15" style="edgeStyle=orthogonalEdgeStyle;rounded=0;orthogonalLoop=1;jettySize=auto;html=1;exitX=1;exitY=0.5;exitDx=0;exitDy=0;entryX=0;entryY=0.5;entryDx=0;entryDy=0;fontSize=17;endArrow=none;endFill=0;" parent="1" source="TfRsqFgp6yVs1uY6bBsS-5" target="TfRsqFgp6yVs1uY6bBsS-7" edge="1">
          <mxGeometry relative="1" as="geometry" />
        </mxCell>
        <mxCell id="TfRsqFgp6yVs1uY6bBsS-16" style="edgeStyle=orthogonalEdgeStyle;rounded=0;orthogonalLoop=1;jettySize=auto;html=1;exitX=1;exitY=0.5;exitDx=0;exitDy=0;entryX=0;entryY=0.5;entryDx=0;entryDy=0;fontSize=17;endArrow=none;endFill=0;" parent="1" source="TfRsqFgp6yVs1uY6bBsS-5" target="TfRsqFgp6yVs1uY6bBsS-8" edge="1">
          <mxGeometry relative="1" as="geometry" />
        </mxCell>
        <mxCell id="TfRsqFgp6yVs1uY6bBsS-17" style="edgeStyle=orthogonalEdgeStyle;rounded=0;orthogonalLoop=1;jettySize=auto;html=1;exitX=1;exitY=0.5;exitDx=0;exitDy=0;entryX=0;entryY=0.5;entryDx=0;entryDy=0;fontSize=17;endArrow=none;endFill=0;" parent="1" source="TfRsqFgp6yVs1uY6bBsS-5" target="TfRsqFgp6yVs1uY6bBsS-9" edge="1">
          <mxGeometry relative="1" as="geometry" />
        </mxCell>
        <mxCell id="TfRsqFgp6yVs1uY6bBsS-18" style="edgeStyle=orthogonalEdgeStyle;rounded=0;orthogonalLoop=1;jettySize=auto;html=1;exitX=1;exitY=0.5;exitDx=0;exitDy=0;entryX=0;entryY=0.5;entryDx=0;entryDy=0;fontSize=17;endArrow=none;endFill=0;" parent="1" source="TfRsqFgp6yVs1uY6bBsS-5" target="TfRsqFgp6yVs1uY6bBsS-10" edge="1">
          <mxGeometry relative="1" as="geometry" />
        </mxCell>
        <mxCell id="TfRsqFgp6yVs1uY6bBsS-5" value="合约主体" style="rounded=1;whiteSpace=wrap;html=1;fontSize=17;fontStyle=1" parent="1" vertex="1">
          <mxGeometry x="210" y="265" width="150" height="30" as="geometry" />
        </mxCell>
        <mxCell id="TfRsqFgp6yVs1uY6bBsS-6" value="状态变量" style="rounded=1;whiteSpace=wrap;html=1;fontSize=17;fontStyle=1" parent="1" vertex="1">
          <mxGeometry x="440" y="185" width="120" height="30" as="geometry" />
        </mxCell>
        <mxCell id="TfRsqFgp6yVs1uY6bBsS-7" value="函数声明" style="rounded=1;whiteSpace=wrap;html=1;fontSize=17;fontStyle=1" parent="1" vertex="1">
          <mxGeometry x="440" y="225" width="120" height="30" as="geometry" />
        </mxCell>
        <mxCell id="TfRsqFgp6yVs1uY6bBsS-8" value="函数修饰符" style="rounded=1;whiteSpace=wrap;html=1;fontSize=17;fontStyle=1" parent="1" vertex="1">
          <mxGeometry x="440" y="265" width="120" height="30" as="geometry" />
        </mxCell>
        <mxCell id="TfRsqFgp6yVs1uY6bBsS-9" value="事件" style="rounded=1;whiteSpace=wrap;html=1;fontSize=17;fontStyle=1" parent="1" vertex="1">
          <mxGeometry x="440" y="305" width="120" height="30" as="geometry" />
        </mxCell>
        <mxCell id="TfRsqFgp6yVs1uY6bBsS-10" value="注释" style="rounded=1;whiteSpace=wrap;html=1;fontSize=17;fontStyle=1" parent="1" vertex="1">
          <mxGeometry x="440" y="345" width="120" height="30" as="geometry" />
        </mxCell>
        <mxCell id="TfRsqFgp6yVs1uY6bBsS-19" value="Solidity智能合约结构" style="text;html=1;strokeColor=none;fillColor=none;align=center;verticalAlign=middle;whiteSpace=wrap;rounded=0;fontSize=20;" parent="1" vertex="1">
          <mxGeometry x="330" y="80" width="200" height="20" as="geometry" />
        </mxCell>
      </root>
    </mxGraphModel>
  </diagram>
</mxfile>
